<mxfile host="Electron" modified="2023-12-21T09:23:46.651Z" agent="Mozilla/5.0 (Windows NT 6.1; Win64; x64) AppleWebKit/537.36 (KHTML, like Gecko) draw.io/21.1.2 Chrome/106.0.5249.199 Electron/21.4.3 Safari/537.36" etag="4OptOuhRfb8oLRT7uLt4" version="21.1.2" type="device">
  <diagram name="ページ1" id="dTsORVDeSFrhJmxa_dIk">
    <mxGraphModel dx="1098" dy="775" grid="1" gridSize="10" guides="1" tooltips="1" connect="1" arrows="1" fold="1" page="1" pageScale="1" pageWidth="1169" pageHeight="827" math="0" shadow="0">
      <root>
        <mxCell id="0" />
        <mxCell id="1" parent="0" />
        <mxCell id="-1-HcK7XJoS6oykftido-15" value="" style="shape=image;verticalLabelPosition=bottom;labelBackgroundColor=default;verticalAlign=top;aspect=fixed;imageAspect=0;image=data:image/png,iVBORw0KGgoAAAANSUhEUgAAASgAAAJVCAYAAABtU2ibAAAAAXNSR0IArs4c6QAAAARnQU1BAACxjwv8YQUAAAAJcEhZcwAADsMAAA7DAcdvqGQAAC6KSURBVHhe7Z3BleNGskVnLVfkgfbjwnjwPdB+XBgPZIIcGA/kwXjQDvRWn9FCqLMzH0gEkUhEJu895x5JIRYIIgKvABBk/ePPP/9EREypLCIiZlAWEREzKIuIiBmURUTEDMoiImIGZRERMYOyiIiYQVlERMygLGbx69evf3758uXP//73v/iBWu9tBuq5wM9RFu/QhvH3339HfGk9O7iusjhSNYCIR7SjrHqecC1lcYRq4BDfkaBaV1m8UhsmNWTP9GsS+FmqWXgm16vWUxavUg1VqQ0lwDPU3JRuMyTnD+dTFntrv9nUMLkAUV69qfJAziLOpSz29NkgAZzl2angAzmTOI+y2Mu9cOJUDnqj5sx8IGcT51AWe6kGxkIL4ArUvJkP5HxifmWxh2pQtndZAC5DnfJx4XxeZfGs9YCYhFOM8vQYYpRzV2xDOauYW1k8o3rHjmtOccrtR7jHKbef+0DOLOZVFs+4MxjwBmy/c5QzaG7XP+XcYk5l8V3Vu3YAd6GuRz2Qs4s5lcV3rYeBUzu4m3omOYqaS1l813oYAO6Go6i5lcV33BkEgNsRcylnGPMpi+8ohgAgBfVscpo3j7L4jvUQAGRh580bOceYS1l8RzEAAGkQ8ynnGHMpi1E/6fqTvVZunJwPMZ9yljGXshi1bv52jr8U9WkCt1DMRdk784GcZcylLEYVzV+O+jW+8zrVMq4QWsQ2krOMuZTFqKL5y1G/xndep1rGFUKL2EZyljGXshhVNH856g9Bc4o3F2XvzAdyljGXshhVNH9ZVry+9gmIGZWzjLmUxaii+QCpEDMqZxlzKYtRRfMBUiFmVM4y5lIWo4rmA6RCzKicZcylLEYVzQdIhZhROcuYS1mMKpoPkAoxo3KWMZeyGFU0HyAVYkblLGMuZTGqaD5AKsSMylnGXMpiVNF8gFSIGZWzjLmUxaii+QCpEDMqZxlzKYtRRfMBUiFmVM4y5lIWo4rmA6RCzKicZcylLEYVzQdIhZhROcuYS1mMKpoPkAoxo3KWMZeyGFU0HyAVYkblLGMuZTGqaD5AKsSMylnGXMpiVNF8gFSIGZWzjLmUxaii+RL7VkrEK91DzKicZcylLEYVzW/4v//7vz//9a9/IV6umkExo3KWMZeyGFU0v2FvcAB6Yr8I//3vf2//9R0xo3KWMZeyGLFu/Nb8Bgso/tAAXA0BtZayGLFu/Nb8BgIKRkBAraUsRqwbvzW/gYCCERBQaymLEevGb81vIKBgBATUWspixLrxW/MbCCgYAQG1lrIYsW781vwGAgpGQECtpSxGrBu/Nb+BgIIREFBrKYsR68ZvzW8goGAEBNRaymLEuvFb8xsIKBgBAbWWshixbvzW/AYCCkZAQK2lLEasG781v4GAghEQUGspixHrxm/NbyCgYAQE1FrKYsS68VvzGwgoGAEBtZayGLFu/Nb8BgIKRkBAraUsRhXNbyCgYAQE1FrKYlTR/AYCCkZAQK2lLEYVzW8goGAEBNRaymJU0fwGAgpGQECtpSxGFc1vIKBgBATUWspiVNH8BgIKRkBAraUsRhXNbxgZUPbnh+y53HLdvPa///1vezSsBAG1lrIYVTS/gYCCERBQaymLUUXzG0YElIWOac9jQ+ra0Jq//vrr37Xffvvt78c/+4OPMBcE1FrKYlTR/IarAsqCxrTB/Omnn775j8fLOuLPP//8TVs3X/cvX75sS4YZIaDWUhajiuY3EFAwAgJqLWUxqmh+wxUBZadnNpDmL7/80gTQUS2k/NTv6tNQuBYCai1lMapofkPPgPKjJlumCpwzWlj58rk2NR8E1FrKYlTR/AYCCkZAQK2lLEYVzW/oFVAWGn5aZ2GiQuasfrpnp5AwFwTUWspiVNH8hrMBZRevTTuyUaHSU7/YbrclwFwQUGspi1FF8xsIKBgBAbWWshjRQkM0v+FsQPlNlTZ8KlSu0NbZTim5FjUPRwPKZtFm94Gca8yhLEasG28qzgaUX7g+cztBVDuKsnU+s94wlqMB5T6Qc405lMWIO01vIKBgBATUWspixJ2mN8waUM9eE+SDgFpLWYy40/SGswFlF6xNCw0VJldpw25yHWoOCKi1lMWIO01vmDWg7PkIqHkgoNZSFiPuNL1h1oAy7TkJqDkgoNZSFiPuNL3hbEDZ0JlX3T3+ykhAlet45jVDHAJqLWUx4k7TG2YOqP/85z+hgKp/HsZBQK2lLEbcaXrD2YC681286Hrb430ZMBYCai1lMeJO0xvOBtQff/zxTbsOVYbIlVoY2t3r2x3HMAEE1FrKYsSdpjfMGlD+GcCR2HPDexBQaymLEXea3nA2oDwobPjqIOmtndqZFoZ27WnkO3jlekAcAmotZTHiTtMbzgaUYyFlyzKvuuXAb2nosb5RyvWAOATUWspixJ2mNxBQxyjXA+IQUGspixF3mt7QK6AMG0Dzinf0LPT8HUNuzpwPAmotZTHiTtMbegaUYxfN/WjqzP1RFko22Obe+sMcEFBrKYsRd5reQEDBCAiotZTFiDtNb7gioOwUzE/HbDAtaCLXpfzxdqroy+EPJcwNAbWWshhxp+kNVwRUjS3ftKDxC902sH6UZf/udXuMP55rTetAQK2lLEbcaXoDAXUdfkQ4+obSjBBQaymLEXea3jAioCxoTNtRPXxsfSyMTPt3r9upnD9+ZspTVvPTIaDWUhYj7jS9YURAfSIWsATUdwiotZTFiDtNbyCgrkXtlJ8IAbWWshhxp+kNBBSMgIBaS1mMuNP0BgIKRkBAraUsRrTQEU1vIKBgBJGA2uZRzjXmUBaj1o1XEFAwgqMB9UDOMuZSFqOK5jcQUDACAmotZTGqaH4DAQUjIKDWUhajiuY3EFAwAgJqLWUxqmh+AwEFIyCg1lIWo4rmNxBQ9/Ipd5sTUGspixHrxm/NbyCg7qUMqJVDioBaS1mMWDd+a34DAXUvnxBOBgG1lrIYsW781vwGAgpGQECtpSxGrBu/Nb+BgIIREFBrKYsR68ZvzW8goGAEBNRaymLEuvFb8xsIKBgBAbWWshixbvzW/AYCCkZAQK2lLEasG781v4GAghEQUGspixHrxm/NbyCgYAQE1FrKYsS68VvzGwgoGAEBtZayGLFu/Nb8BgIKRkBAraUsRqwbvzW/gYCCERBQaymLEevGb81vIKBgBATUWspixLrxW/MbCKicrPYZPQJqLWUxYt34rfkNBFROCCjMrCxGrBu/Nb+BgMoJAYWZlcWIdeO35jcQUHlZJZwMAmotZTFi3fit+Q0EFIyAgFpLWYxYN35rfgMBBSMgoNZSFiPWjd+a30BAwQgIqLWUxYh147fmNxBQMAICai1lMWLd+K35DQQUjICAWktZjFg3fmt+AwEFIyCg1lIWI9aN35rfQEDBCAiotZTFiHXjt+Y3EFAwAgJqLWUxYt34rfkNBBSMgIBaS1mMKprfQEDBCAiotZTFqKL5DQQUjICAWktZjCqa30BA5cX6Yp/HW6E/BNRaymJU0fwGAiovK32jAQG1lrIYVTS/gYDKCwGFWZXFqKL5DQRUXn777bdv4WT/nB0Cai1lMapofgMBBSMgoNZSFqOK5jcQUDACAmotZTGqaH4DAQUjIKDWUhajiuY3EFAwAgJqLWUxqmh+AwEFIyCg1lIWo4rmNxBQMAICai1lMapofgMBBSMgoNZSFqOK5jcQUDACAmotZTGqaH4DAQUjIKDWUhajiuY3EFAwAgJqLWUxqmh+AwEFIyCg1lIWo4rmNxBQufj5558f3f/Hn1+/ft0qa0BAraUsRhXNbyCgcrHSNxiUEFBrKYtRRfMbCKhcEFB6ljGXshhVNL+BgMqF9WO1cDIIqLWUxaii+Q0EFIyAgFpLWYwqmt9AQMEICKi1lMWoovkNBBSMgIBaS1mMKprfQEDBCAiotZTFqKL5DQQUjICAWktZjCqa30BAwQgIqLWUxaii+Q0EFIyAgFpLWYwqmt9AQMEICKi1lMWoovkNBBSMgIBaS1mMKprfQEDBCAiotZTFqKL5DQTUPaz4ebtnEFBrKYtRRfMbCKjxeDh9UkgRUGspi1FF8xsIqPGU4fQp256AWktZjCqa30BA3YOF05cvX7b/Wh8Cai1lMapofgMBBSMgoNZSFqOK5jcQUDACAmotZTGqaH4DAQUjIKDWUhajiuY3EFAwAgJqLWUxqmh+AwEFIyCg1lIWo4rmNxBQMAICai1lMapofgMBBSMgoNZSFqOK5jcQUDACAmotZTGqaH4DAdUfuwlT7YyfDAG1lrIYVTS/gYDqS/kxFvgOAbWWshhVNL+BgOoLAaUhoNZSFqOK5jcQUH35+vUrASUgoNZSFqOK5jcQUDACAmotZTGqaH4DAQUjIKDWUhajiuY3EFAwAgJqLWUxqmh+AwEFIyCg1lIWo4rmNxBQMAICai1lMapofgMBBSMgoNZSFqOK5jcQUDACAmotZTGqaH4DAQUjIKDWUhajiuY3EFDH4A7xcxBQaymLUUXzGwioYxBQ5yCg1lIWo4rmNxBQxyCgzkFAraUsRhXNbyCgYAQE1FrKYlTR/AYCCkZAQK2lLEYVzW8goGAEBNRaymJU0fwGAgpGQECtpSxGFc1vIKBgBATUWspiVNH8BgIKRkBAraUsRhXNbyCgYAQE1FrKYlTR/AYCCkZAQK2lLEYVzW8goGAEBNRaymJU0fwGAuqxoR6b21Q7EPSBgFpLWYwqmt/w6QFVfoTFhGsgoNZSFqOK5jd8ekCVfyaKgLoOAmotZTGqaH4Dp3gwAgJqLWUxqmh+AwEFIyCg1lIWo4rmNxBQMAICai1lMapofgMBBSMgoNZSFqOK5jcQUDACAmotZTGqaH4DAQUjIKDWUhajiuY3EFAwAgJqLWUxqmh+AwEFIyCg1lIWo4rmNxBQMAICai1lMapofgMBBSMgoNZSFqOK5jcQUDACAmotZTGqaH7DpwUUn7m7BwJqLWUxqmh+wycFVPmhYEJqLATUWspiVNH8BgIKRkBAraUsRhXNb+AUD0ZAQK2lLEYVzW/gIjmMgIBaS1mMKprfQEDBCAiotZTFqKL5DQQUjICAWktZjCqa30BAwQgIqLWUxaii+Q0EFIyAgFpLWYwqmt9AQMEICKi1lMWoovkNBBSMgIBaS1mMKprfQEDBCAiotZTFqKL5DQQUjICAWktZjCqa30BAwQgIqLWUxaii+Q0EFIyAgFpLWYwqmt/wiQFlr5nP442FgFpLWYwqmt/waQHl4cSHhsdCQK2lLEYVzW/4tIAqw4mAGgcBtZayGFU0v+ETT/EIp/EQUGspi1FF8xs+MaBgPATUWspiVNH8BgIKRkBAraUsRhXNbyCgYAQE1FrKYlTR/AYCCkZAQK2lLEYVzW8goGAEBNRaymJU0fwGAgpGQECtpSxGFc1vIKBgBATUWspiVNH8BgIKRkBAraUsRhXNbyCgYAQE1FrKYlTR/AYCCkZAQK2lLEYVzW8goL5j24GPwVwDAbWWshhVNL+BgPqOhxMB1R8Cai1lMapofgMB9R0C6joIqLWUxaii+Q0E1I9YOLE9+kNAraUsRhXNbyCgYAQE1FrKYlTR/AYCCkZAQK2lLEYVzW8goGAEBNRaymJU0fwGAgpGQECtpSxGFc1vIKBgBATUWspiVNH8BgIKRkBAraUsRhXNbyCgYAQE1FrKYlTR/AYC6j24qTMGAbWWshhVNL+BgHqPLAH1v//975vWQwsA1/pqWjC4VrfHmfYzIyGg1lIWo4rmNxBQ70FAxSCg1lIWo4rmNxBQ7/P169ft3+7Bnv+33377pu38v/zyy9/+9NNP3/z555//1uq//vrrN+1nvnz58s0REFBrKYtRRfMbCKi5sFCyHd203pVHclE9zGxZV4cVAbWWshhVNL+BgJoLAgozKItRRfMbCKi5+OOPP771zLTTNhU8R/XTQAspm4Er54CAWktZjCqa30BAzYFfazp71LRneTR1BQTUWspiVNH8BgJqHGUgRCGgMJOyGFU0v4GAGkcZCNFtbju3efa0bk8/3bN3+Ow6V+93KAmotZTFqKL5DQTUOMpAiGD98QApl3GF9hx+tNYzpAiotZTFqKL5DQRUfo4G1D//+c9v/ay1unq8koDCI8piVNH8BhtgAionfqplYfEsoDyILAD2QsX+nz/uVdDZY58t6x0IqLWUxaii+Q0EVF78YyzWIxUkFjQeOkexkPAjrVeB13MuCKi1lMWoovkNvQcR+uEBpULEw0nt9K+wIzL7WQsqdfpHQOErZTGqaH4DAZUXuynTrAPEQ8R2+nfxEHLrZZsEFO4pi1FF8xt6DyL0w/pi1qdiHiBn8GW45ZGU3xO1NzPvQECtpSxGFc1vsOEkoHLiAWU98vDwUzs7TTuDLcPw0z3Tg5CAwlfKYlTR/AYbTAIqJyqgPEzOUi7DwsOXayHlAdVzLgiotZTFqKL5DTaUBFRO/BsGbMcuj57KcHkXC4wSX65p/88koHBPWYwqmt9gA0lA5aQOKL89wDxLHVD2HL5sk4DCZ8piVNH8BhtGAion9Y2aZYCcpQ4oo1y+hUnPrwUmoNZSFqOK5jfYMBJQufGbNUvPopZRLr/3TBBQaymLUUXzG64YRuiLBVR5emeeRS2jfEdvb17ehYBaS1mMKprfYMNIQOXGTvM8ONyz7C3Dl783L+9CQK2lLEYVzW+wYSSg8uPBYTu5/fNdXv28Pw+nePhMWYwqmt9wxTBCX+ydPA8Ow3b2o1hv7fH2s/bPV99Q4M+jwuQMBNRaymJU0fwGG0YCKjfltSHDQqbe2b3mjzPtvy3cIpQ/2xMCai1lMapofoMNIwGVGw8N0ylDy9zrbxRfXuQo7QgE1FrKYlTR/AYbRgIqNx4aI/rkz2X2hIBaS1mMKprfMGrw4X2uCIw9LEgIKHylLEYVzW8goPIzMqAsRAgofKUsRhXNbyCgcmO9GRlQ9QX5XhBQaymLUUXzGwio3Fx1RLMHAYVHlMWoovkNBFRuPCxsBx8BAYVHlMWoovkNBFRuPCwsOEZAQOERZTGqaH4DAZUbD4tRPSKg8IiyGFU0v4GAyo2HRfSO8He56poXAbWWshhVNL+BgMqNh8Wrz9D1goDCI8piVNH8BgIqN1eExTP8+Xo/JwG1lrIYVTS/wQaRgMrLFWHxDH8+C5SeEFBrKYtRRfMbCKjc3BVQvd81JKDWUhajiuY3EFC5uSuges8EAbWWshhVNL+BgMrNXQHV+11DAmotZTGqaH4DAZWbuwKqNwTUWspiVNH8BgIqNwQUZlQWo4rmNxBQuSGgMKOyGFU0v4GAys3IgKr/OENPCKi1lMWoovkNBFRuRgaUzQEBhUeUxaii+Q0EVG5GBtRVHxQ2CKi1lMWoovkNBFRuCCjMqCxGFc1vIKByQ0BhRmUxqmh+AwGVm5EBZTNCQOERZTGqaH4DAZWbkQFlc0BA4RFlMapofgMBlZcrA0Nh3zlFQOERZTGqaH4DAZUX26FHBpRBQOERZTGqaH4DAZUXDwvbuUdBQOERZTGqaH4DAZUXD4uR/fHn7P0VwwTUWspiVNH8BhtGGxwbSMzj6OtPjj9n75nwZdaIGZWzjLmUxaii+Q3l568wpyNRz99LhZhROcuYS1mMKpoPk2BHG8927KsY/bxiRuUsYy5lMapoPkyCh8TIC+TG6FNLMaNyljGXshhVNB8mwUNi1B/sdPx6EQGFz5TFqKL5MAkjQ6KGgMJXymJU0XyYgLvewXP8ue1o6mrEjMpZxlzKYlTRfHgTC416e7q9T8M8IO4OqBH3X9Xb8oGcZcylLEYVzYcAdgRh2+1IAHmA9cAD4q6e+fOPuEDvs+k+kLNcav0o322stf+3hav8eTyvLEYVzYeD2PZ65xTHdoyzRx6+o93FyFsNxIw2c3z2Xj0L2q2XzbLxPWUxqmg+HODstvIjr3ewn/Ud6y4sYEetQzmf2zb7e37LL9Db08LUHudaGKnHuRxZ9VEWo4rmwwvOHv2UvLPNr/xWywij1qGeUTtaKgOy9J3e7C3rgdxn8JiyGLVuPjznim0U3al8Bxp9g2ZNsSNfSjmf6ojJjpB6UR9dbb2R+w4+Vxajls03YZ93fjsf4d2Asp31Tnw93rkOF8Fnsw6nqwK6vp5FSL2nLEYtw8mEfa4KKCOy7X3HeTcYbAdURyK2w1vd/v8R/Oeunhtbfr2+I2a1fL5tm8h9CLWyGNUaXQqaq7fN0VAwfKc5SnlEYCH0Kmjt/9tjX506lcu8kjqcrvxFUVM+7wO5D6FWFqMSUMcYsW2O7njFDvMUv55y1bqPutWgfB4Lq9H4c2+BLfcjbJXFqGU4jdgJZ+Xq6yzG0e3vO8weFkxXH9UYfqT1bF164M9x9fPsYX0pnl/uR9gqi1HLcDq6g3wakdOvMxzd/ns7q/2GHxFMzoj7sUaF4Ct8HbbtK/cl/FFZjEpAvWbUNY8zp3j236OCtEStS098+SODV2H7RvFa5b6EPyqLUQmo14zaLkcDpthRbufqdcn4Wrc+yf0JvyuLUQmo18xwBHUX1U7blVEX4Y/i67Ktj9yf8LuyGLUOqBEXg2dj1DY5+gsi4057xbtrVy77HarrYXJ/wu/KYlTb6GVAjTpamI0R13dmDqgrrhFlep1OsU5yf8LvymJUOzooA+roTvJpjNguM57iWTBdsT7V0UoafJ24DvVaWXxHAuo1Vx9ZRpafacct7/LuyVXBdxZfJ27afK0sviMBdYwrQyqy3X0nyXC90I4kfH164svMcv3JqYJT7k/4l7L4jnVAXX20MCtXbZfocn0HydKnYofthi8z25s21RGj3J/wL2XxHe23YB1SoOm9bWzbRy/A+w6S5eii2GG7ccUye1AdMcr9Cf9SFt+1DihuN9inV0jZNn7nKMh3kO06yO0UO2wXbLv0XmYvqnWT+xL+pSy+q+0odUjBPme3j/0mfvcULdsFZF+X6JHgHrZdMr2+mmLd5L6EfymLZ6wDqtfArYrtSO+EjG3bM0eoV71z9i6+Lr1OObPdQV5TrJvcj/AvZfGMHEW9h22nV0FlYW+P6xH62Y4wfF16rU/v5fWmWDe5H+FfyuJZy3By4Tgq5N85ynpGtms0PY94LMB9WVmusdUUr1XuQ3vaLJSn56b99zYf8mdmVhbPasNf72Am5KLYSW6n5xFdefraO9h7UbxWuQ+Vlq/niBZY2+m/XN5MymIP1VEAIZULH+gM9Dqisxkrd+is10CL1yr3H7MM7Vo7MrTXWR55Kmc/spLFXtbh5EIOfIizcGZ9/PqcWQbUmTcSrqR4rXLfqU/jjp6q7oXaA/k82ZXFnpbBVJr1N9sn4cOb5TSo2JlC1LPV83rWFVRHi80+4//PtKB6lzrkLLgfNM+XWVnsbT1ApdAPC30bQvNI6FSDezu+Pkd/eZVHTaXZA8rWu1i/H/YVr5u9+lIuczsS++E5MyuLV2g7jBomN+uheHbK38Z77v0WLh+TAV+XVzvmq1nKHlDladiDv/cRr5m9j2rLbTJTSMniVe79xqvt3ZxVKYfuqOXRSXkKkIFyPUsshF+Fkvvg26xlel01FsDF+n1b37IXV83/jCEli1erBguPWw64u3cEao+vH2vagGYLqPJ12b/Xr/uZW/B+m6/qGk86qu3+bX/w/3519HiWMqTKbZZVWRxlPWR4zPrI6SjljlGbgfLazNGA2o42fpgrq2V6XTW+bn4U4/9t/RmBP5/54Idtl01ZHO3Rw3fUR0/uNvAvUT+bBV8fey3q9bvPfvuX2ygj5Wu86yi2XIcHcjtmUBbv1AZPDST+pQ1UMVg/4EcgRyiPMo7+zAh8feqAUkdKe2Y7da3xdSvdXt8wqhCX2zGDsoh5tUF+dSqwDd0hfEizvIvq62Oh9EBug1f6MlSIZ8DXr/QO/Lm3615yW96tLGJej+x0fv3mCD6kRx9/NT12Gl/G6KOSo/j6uXfhR+PbOshtebeyiHk9OtCRx5lZjjaq0zO5DV7pP5/lqLDG18+9k2Id5La8W1nEvB4NEjsCOXIEke16jR3Jnd1pMr2eGuuJr595d4j6emxzJbfnncoi5tWC5+hQ2+C9wpbnQ5qB6h4muQ1emen11JTbO8M6Zj/Nk0XMq/0G3t5if4kN36swK+89ysKZHaY8QsmIr5uZ4bS6xy+EK5VFzG1ksLfBe0oxoCnw9Xl2r9OeM91ikOUifrG95Da9U1nE3G7DdIgjjy0GNAW+Pu9cF6l+Nh2+fmYWfH22o225Xe9SFjG3keG2oXu1s1YDeju2vr5OD+Q22NN/LsvRSY2v3/baUlBtM7ld71IWMbeRC+XGq52hGtDbqa6LyW2wZ/FzKfH1y7SOvj42Vw/kdr1LWcT8vrqbvMSOSJ4Fmg9optMiX6cH8vUr7TUWP5cSX79M6+jrQ0BhN6MD/izQfECjy7wSX5/IaUe2WyYUvn6Z1tHXh4DCbkaPdp7tENU1nxT4+mzBKrdBrf9MpiPBkvIIz8yCr8+Zzz9epSziHEZ2xGdHUHaUkm2nqY6G5Ouv9ccfvU9sNOW1te11pcDXh4vk2NXIkD8Ls4w3axrFOsnXX5vxNZSUH+PJtJ6+Ptt1Srlt71IWcQ4jR1CvdohsO43h63TkN3vG09Sach0zrWexPnLb3qks4jweDalXO0S2ncao7gqXr9/1x20XelNSvp7IL5er8XV6ILftncoizuM2WC959bhiSNNw9H6oGW4vMHwdzSwBdeaesxHKIs6jDfqze5wM+/+vdohiSFPh6/XsHSZ/TMb1LynXM8uR3jtvRoxUFnEun71DZ7z6/4YP6auwG40F67MdqDwCyLbuNb6eZpZvMI2cRt+hLOJcbsO1y6v/b/iQ2g6fDV83dRTl/8/MTrmuWT5W5OuzHWH/sG0zKIs4l3aYvhcs9hvyyJFFth2nRP2Wt9fkta2ennJ9swVUxnugTFnE+bQhq7HgOnoxNtuOU+Prp8x41Kco1zlbQD34YZ7Ka1N7jrjzXBZxPm1gSiLhZFRDlxJfx9KZKNc7a0CV6xhxO0pv5vKssojzaUPi4WL/bgEVwQct+nN3kP1i+B6+jc0MAVWfJtfaqbU6OrVaedpd2juoZBHnsxySd/CfnSGgZqXsUYaAsnUo18mNnDLbY+uft/B6IOc0qizifPpwvBswZ38eXuPb2MxwKl0fBZ1ZJ3U01uNoShZxPn0oCKi8+DbOsp3L9TF7YCFXLnM7UpQze0RZxPn0gSCg8uLb2Iy8gXEV5fr07nu57DMhJYs4n2cH7ezPw2t8G5vZAuqKWzXK5T+Qc/tKWcT5PDto/vME1HX4NnbvZsS6VM8hZ/eZsojzeXbQ/OcJqOvwbezeSX1R+yrK59lmS87vnrKIc1m+1fsu/vOZb9ScHd/G7p3UF7OvxE5ni+eRM7ynLOJcVgPwFv7zGe7PWZX6bf07Gb0u/jzbJQg5x0pZxLn05p85PfNlEFDXMeq06gjleoxYl+q55BwrZRHnsseQ+TKueDcHvuPb+Wy/zlKux3bn96VUlyHkHCtlEeexx/Unw5ex3f0LF1GeWt2Jr4M56qi5eN1ylpWyiPPYa+B7LANeU57m3Ymvgznql5I/X+Q6lCziPHrTn737dmQAfTlwPXefRtsRk/d7ZM/9+bZZlfNcK4s4j/WQlad8dnRlF85tIOyfzw7l6+XAupTv+o7suT/fdhe9nOdaWcQ5LO9l8aF79508Xw6sj/d6dM/9+QioD7Ecsq3pb+PLgfUp52Zkz/35CKgP0Rt+5v4no9c7gTAH3mvz2bXL3vhzbvMqZ7pWFnEOveFnKU8VYX281+bI20r8OblI/gH6NSfzLD2XBbkpj5ZH99ufc3uzRs51rSxifr3ZR689PftN6csyYW3s9OqufvtzbrMo57pWFjG/VbOfYkP57OMMvqyzF9ohP95rdyTFc8qZVsoi5vfIgFl42WNeXQj1ZY28YAr34L02R/9C8ud9IGdaKYuY2yPXjOyI6egA+rLuvsMZrsd7bY68QG748z6Qc62URcytN1oFkAXTs9M5RTE4sDje69H99qP57XnlXCtlEXPrjfYjHm9+NJicYnBgYe58B6/8/N8DOddKWcTceqMtkOyfZ68lFIMDC1NeGhjd7+qyhJxrpSxiXsubKs/eQW5Uv9lgYbzPvWYnQvncD+RsK2UR81o1+jTVbzZYmHJ2Rr8h4s8b+ZiLKYuYV290r1sCfHkmrM2dvfbn3YJRzrZSFjGvvQfMlzf6kB/G473uOT9HKZ5XzvWesoh57T1gvjzugVof73XP+TlK8bxyrveURczpFRe0ey8P8uK9vqPfxfPK2d5TFjGnfltBzwHrvTzIi/d6dL/L+68eyNneUxYxp97kXteLqsGBxfFej+63zWvxvHK295RFzGnv4aoGBxbHe22O/BxedeQvZ3tPWcR8Vp9l6oIv792PyMBceL/Nke/a+nNun3iQ872nLGI+r7ih0pfH16x8BuWRTM85ekU1Z3K+95RFzKc3efst1AVfJnwG5TXHkX3354vepGnKIubTm9zz2oEvEz4H7/nIvhfPJ2f7mbKIubzi3TY+JPyZlKd52x8vuJxizuR8P1MWMZdX3P90xTIhP+WbLaN6XzyXnO9nyiLm0hvc850XXyYXyD8P7715NdW7z3K+nymLmMsrhumKZcIclKFx9e0G736TpiuLmMcrbqbk+hOMOsWv5lfO+DNlEfPozbWB6oUvcxsa+FCs/z3fFVa8+1W/rixiHr25V9xeMOpdHPhcfNbMB3LGnymLmMMrbi+oLloCXIrP2nYGIOf8mbKIOfTm9gwTbi+AkfisvfM5PFMWMYfe3J6nYr5Mbi+AEfi8be8Wyjl/pizi/V5xKsb3P8FofN4IqMW88tsLei4T4Bk+bwTUYlaN7YIv8+q3lgGcao7lrD9TFvF+vbG94OI43IHPHAG1kHw5HayCzx0BtZDe1F5fTndF4AEcweeOgFrI3mFSDQnAMKrZk/P+TFnE+7RGelN7wNET3InPHgG1iN7QXqd31YAADKWaPznzz5RFvE9vaI9bATh6grvx+XvnL7qYsoj3aE3sGSjVcAAMp5pBOffPlEW8R29mj+9+4r4nyIDP4PZ5Ujn3z5RFvEdvZo/Tu2owAG6hmkM598+URRyvNdCbeRaOniALPofv/NFOUxZxvN7IHqFSDQXAbVSzKGf/mbKI4+0VKhw9QSZ8FrfLFnL2nymLONae39Pky+HoCTJQzLWc/VfKIo6111EPR0+QjWIe5ey/UhZxrN7Es++4+XK47wmy4DP5QM7+K2URx9nrq325axwyUsyknP9XyiKOs9dpmS+j12f4AM5S/fKV8/9KWcRxegPPfJi35z1UAL2o5lLO/ytlEcfZI1h8GXY0BpCF6rKDnP9XyiKOsdd1ox7LAOiNz+U2m3IfeKUs4hi9eWeuG3FrAWTF5/Ld74IyZRHH2CNYfBncWgDZ8Nl892Mupizi9fb47icujkNmitmU+8ARZRGv15t35sJ2j2UAXIXP5wO5DxxRFvF6vXlnPjPny+jx/VEAPelxi4Epi3i9RfPepscyAK6gevNG7gNHlEW8VntXg3CBlfH5PvMOnimLeK3ePK4dwar4jL/7PVCuLOK1evPOfLwFIDM+4w/kPnBUWcRr9ebxwV5YkV4XyE1ZxGv15m0NBFiKar7lPnBUWcRr5SI5rIzPth1JPZD7wFFlEa+115fUAWSkmG05/xFlEa+XgIIV6Xn9yZRFvF5vIu/kwUr4XBNQk8vXpMCK+Ez3uP5kyiJeb8+/hQeQhWKm5dxHlUUcIwEFK1G9Oy1nPqos4hi9mVyHghXwed5uQJYzH1UWcYxch4KV8Fk++/m7UlnEMXI/FKxCdU1Vzvs7yiKO05vKl87BzPT6/qdaWcRxelP56hWYGZ/j7Y93yFl/R1nEcfK5PFiBYoblnL+rLOJYCSiYmStuL3BlEcfqzeV2A5gRn9/tMoWc8XeVRRwrtxvAzPjs9ry9wJVFHCu3G8CsXHV7gSuLOF5v8vYhS4ApuOr2AlcWcbze5K3RAFPgM9v79gJXFnG81Rd9AUxBMbNyrs8qi3iP3mzuKocZsA8FE1AfpDebu8phBnxee357Qa0s4j3aebw3HSA7xazKee6hLOJ9ElAwA9UvUznLPZRFvE9vOn91GDLjc3rF3eOlsoj3yYeHYQZ8Rq+4e7xUFvFeCSjIzNV3j5fKIt6rN5/TPMiIzycB9aFW95cApMJns9ffvnumLOL9ElCQkeqD7XJ2eyqLeL8+BJzmQSau/nBwrSzi/XKaBxnxmbzqw8G1sog5JKAgG8VMypntrSxiDn0YOM2DDFRH9XJmeyuLmENO8yATPovbd+fLme2tLGIeCSjIQjGLclavUBYxjz4UnObBndxxemfKIuaRz+ZBBnwGR57embKIuSSg4G6KGZQzepWyiLn04eA0D+7grtM7UxYxl5zmwZ347I0+vTNlEfPpQ8IfVIDR+Ow9kLN5pbKI+fQh4Q8qwEjuPL0zZRHzyd/Ngzvwmbvj9M6URcypD4t9oyHA1Yz+ahWlLGJOfVi2gQG4lNFfraKURcxp9V3QAJfiszbimzP3lEXMazU0AJdQXfOUszhCWcS8VofdAJfgM3b13717pSxiXqsLlwCX4DN29d+9e6UsYm59eLa3fgG6cve9T6WyiLmtBgigKz5bd937VCqLmF8CCq4gy8VxVxYxvz5EfMMB9MTn6u6L464sYn75hgPoTYY7x2tlEefQh4mPvkAPfJ4IKOxiNVAAp/BZ2n7hyZkbrSziHPLRF+hFhs/dKWUR59GHinui4Aw+R3d+7k4piziP3BMFZ8l0Y2atLOJcElBwBp+fDDdm1soizqUP2HbvCsBhqttV5HzdqSziXFZ3/wIcxudmu+FXztedyiLOpw8aF8vhKBlvzKyVRZxPLpZDFJ8XAgqH6MPGt23CEXxeMt2YWSuLOKd82yYcJfvFcVcWcV596DiKgmf4nGS9OO7KIs4rR1HwihkujruyiHPrw/f7778//hPgR7J+7k4pizi3HEXBM3w2sn3uTimLOL8+hNs1BoBvVN+AIWcnk7KI81u9SwPwDZ8JAgpvtxpGgL/nIfO9T6WyiGtYHs5zwRyqz2zKmcmmLOI6csEcHJ8DAgpT6UNpYQWfi8/BLKd3piziWpaH9nzbwWcy27t3rizievJtB5/NTDdnlsoirqkPKCH1eXjftzdL5HxkVBZxXX1QuYHzs/C+P5BzkVVZxHUtb+DkGw8+AztqIqBwGrn14LPwXm/v4sqZyKos4vr60BJS6+N9nuHDwbWyiOtbficQ16PWxvv8QM5CZmURP8PyetR28x4sxowfbymVRfwcfXi3AYbFmPX+J1cW8bP0AeZUbz2q3sr+Z1YW8bPku6PWxftq1xwfyP5nVhbx8/RBJqTWouip7Ht2ZRE/z/JdPW7gXIOZ/nrLnrKInyk3cK7F7O/gmbKIn6sPNEdR81N9g4Xsd3ZlET9XjqLWwftIQOFSElBr4H2c9RYDUxbxs60GGybF+7h9i6rsdXZlET9b7otaA+/hbF9SVyqLiATU/BBQuKw+3JzmzQsBhcvKad78eP+4BoVLSkDNjfdvxm/SdGUR0fQB304RYDK4UROXlps254aPuuDSVn+NFiaEgMKl9QHfvk8IJoOAwqX1Aed2gznx/m0f/pY9zqwsIrrVhVaYDO/drO/kySJiKQE1L7O/kyeLiKU+4Pxpqvmo3uiQ/c2sLCKW+oBvpwkwGQQULq3dqFkMOUyG927GC+WyiFhLQM2L927GC+WyiFjrQ853lc9H9cFv2d+syiJirQ/4NuQwGQQULm31uS6YDO/dbH9hWBYRlQTUvHjvtk8EyP5mVBYRlT7kfP3KfMx6w6YsIip9wLchh8mYL6D+/Mf/A7buuTeL2bmsAAAAAElFTkSuQmCC;" vertex="1" parent="1">
          <mxGeometry x="40" y="40" width="296" height="597" as="geometry" />
        </mxCell>
        <mxCell id="-1-HcK7XJoS6oykftido-2" value="" style="endArrow=classic;html=1;rounded=0;strokeWidth=1;entryX=0.95;entryY=0.325;entryDx=0;entryDy=0;entryPerimeter=0;" edge="1" parent="1" target="-1-HcK7XJoS6oykftido-5">
          <mxGeometry width="50" height="50" relative="1" as="geometry">
            <mxPoint x="430" y="60.14" as="sourcePoint" />
            <mxPoint x="174.3880003479254" y="85.86606242389134" as="targetPoint" />
          </mxGeometry>
        </mxCell>
        <mxCell id="-1-HcK7XJoS6oykftido-6" value="開始" style="edgeLabel;html=1;align=center;verticalAlign=middle;resizable=0;points=[];fontSize=22;fontStyle=1;labelBackgroundColor=none;" vertex="1" connectable="0" parent="-1-HcK7XJoS6oykftido-2">
          <mxGeometry x="-0.6879" y="2" relative="1" as="geometry">
            <mxPoint x="79" y="-12" as="offset" />
          </mxGeometry>
        </mxCell>
        <mxCell id="-1-HcK7XJoS6oykftido-5" value="" style="ellipse;whiteSpace=wrap;html=1;aspect=fixed;fillColor=none;strokeColor=none;" vertex="1" parent="1">
          <mxGeometry x="80" y="110.14" width="40" height="40" as="geometry" />
        </mxCell>
        <mxCell id="-1-HcK7XJoS6oykftido-7" value="" style="endArrow=classic;html=1;rounded=0;strokeWidth=1;entryX=1;entryY=0.5;entryDx=0;entryDy=0;" edge="1" parent="1" target="-1-HcK7XJoS6oykftido-9">
          <mxGeometry width="50" height="50" relative="1" as="geometry">
            <mxPoint x="430" y="270.14" as="sourcePoint" />
            <mxPoint x="240" y="375.14" as="targetPoint" />
          </mxGeometry>
        </mxCell>
        <mxCell id="-1-HcK7XJoS6oykftido-8" value="終了" style="edgeLabel;html=1;align=center;verticalAlign=middle;resizable=0;points=[];fontSize=22;fontStyle=1;labelBackgroundColor=none;" vertex="1" connectable="0" parent="-1-HcK7XJoS6oykftido-7">
          <mxGeometry x="-0.6879" y="2" relative="1" as="geometry">
            <mxPoint x="64" y="-5" as="offset" />
          </mxGeometry>
        </mxCell>
        <mxCell id="-1-HcK7XJoS6oykftido-9" value="" style="ellipse;whiteSpace=wrap;html=1;aspect=fixed;strokeColor=none;fillColor=none;" vertex="1" parent="1">
          <mxGeometry x="168" y="300.14" width="40" height="40" as="geometry" />
        </mxCell>
        <mxCell id="-1-HcK7XJoS6oykftido-11" value="" style="shape=curlyBracket;whiteSpace=wrap;html=1;rounded=1;flipH=1;labelPosition=right;verticalLabelPosition=middle;align=left;verticalAlign=middle;rotation=348;strokeWidth=1;" vertex="1" parent="1">
          <mxGeometry x="194.39" y="130.36" width="20" height="150" as="geometry" />
        </mxCell>
        <mxCell id="-1-HcK7XJoS6oykftido-12" value="" style="endArrow=classic;html=1;rounded=0;strokeWidth=1;entryX=0.1;entryY=0.5;entryDx=0;entryDy=0;entryPerimeter=0;" edge="1" parent="1" target="-1-HcK7XJoS6oykftido-11">
          <mxGeometry width="50" height="50" relative="1" as="geometry">
            <mxPoint x="430" y="150.14" as="sourcePoint" />
            <mxPoint x="212" y="330.14" as="targetPoint" />
          </mxGeometry>
        </mxCell>
        <mxCell id="-1-HcK7XJoS6oykftido-13" value="移動" style="edgeLabel;html=1;align=center;verticalAlign=middle;resizable=0;points=[];fontSize=22;fontStyle=1;labelBackgroundColor=none;" vertex="1" connectable="0" parent="-1-HcK7XJoS6oykftido-12">
          <mxGeometry x="-0.6879" y="2" relative="1" as="geometry">
            <mxPoint x="64" y="-4" as="offset" />
          </mxGeometry>
        </mxCell>
      </root>
    </mxGraphModel>
  </diagram>
</mxfile>
